<mxfile host="app.diagrams.net" modified="2021-12-25T16:19:38.228Z" agent="5.0 (Windows)" etag="YA4Fy-UIy7xyHnHQIgqN" version="15.9.6" type="github">
  <diagram id="c-UCe-3wYkse3ktO9Hgi" name="Page-1">
    <mxGraphModel dx="868" dy="1581" grid="1" gridSize="10" guides="1" tooltips="1" connect="1" arrows="1" fold="1" page="1" pageScale="1" pageWidth="827" pageHeight="1169" math="0" shadow="0">
      <root>
        <mxCell id="0" />
        <mxCell id="1" parent="0" />
        <mxCell id="j1DzfyWoOEW-tvMOQWZR-35" value="" style="edgeStyle=orthogonalEdgeStyle;rounded=0;orthogonalLoop=1;jettySize=auto;html=1;fontSize=10;" parent="1" source="j1DzfyWoOEW-tvMOQWZR-5" target="j1DzfyWoOEW-tvMOQWZR-9" edge="1">
          <mxGeometry relative="1" as="geometry" />
        </mxCell>
        <mxCell id="j1DzfyWoOEW-tvMOQWZR-5" value="&lt;div style=&quot;font-size: 10px&quot;&gt;&lt;font style=&quot;font-size: 10px&quot;&gt;Informe o nome &lt;br&gt;&lt;/font&gt;&lt;/div&gt;&lt;div style=&quot;font-size: 10px&quot;&gt;&lt;font style=&quot;font-size: 10px&quot;&gt;do evento&lt;/font&gt;&lt;/div&gt;" style="shape=display;whiteSpace=wrap;html=1;" parent="1" vertex="1">
          <mxGeometry x="220" y="-1060" width="120" height="60" as="geometry" />
        </mxCell>
        <mxCell id="j1DzfyWoOEW-tvMOQWZR-45" value="" style="edgeStyle=orthogonalEdgeStyle;rounded=0;orthogonalLoop=1;jettySize=auto;html=1;fontSize=10;" parent="1" source="j1DzfyWoOEW-tvMOQWZR-7" target="j1DzfyWoOEW-tvMOQWZR-5" edge="1">
          <mxGeometry relative="1" as="geometry" />
        </mxCell>
        <mxCell id="j1DzfyWoOEW-tvMOQWZR-7" value="&lt;font style=&quot;font-size: 10px&quot;&gt;Seja bem-vindo ao sistema de cadastro de evento&lt;/font&gt;" style="ellipse;whiteSpace=wrap;html=1;fillColor=#fff2cc;strokeColor=#d6b656;" parent="1" vertex="1">
          <mxGeometry x="220" y="-1160" width="120" height="60" as="geometry" />
        </mxCell>
        <mxCell id="j1DzfyWoOEW-tvMOQWZR-36" value="" style="edgeStyle=orthogonalEdgeStyle;rounded=0;orthogonalLoop=1;jettySize=auto;html=1;fontSize=10;" parent="1" source="j1DzfyWoOEW-tvMOQWZR-9" target="j1DzfyWoOEW-tvMOQWZR-11" edge="1">
          <mxGeometry relative="1" as="geometry" />
        </mxCell>
        <mxCell id="j1DzfyWoOEW-tvMOQWZR-9" value="&lt;font style=&quot;font-size: 10px&quot;&gt;Nome do evento&lt;/font&gt;" style="shape=parallelogram;perimeter=parallelogramPerimeter;whiteSpace=wrap;html=1;fixedSize=1;" parent="1" vertex="1">
          <mxGeometry x="220" y="-940" width="120" height="60" as="geometry" />
        </mxCell>
        <mxCell id="j1DzfyWoOEW-tvMOQWZR-34" value="" style="edgeStyle=orthogonalEdgeStyle;rounded=0;orthogonalLoop=1;jettySize=auto;html=1;fontSize=10;" parent="1" source="j1DzfyWoOEW-tvMOQWZR-10" target="j1DzfyWoOEW-tvMOQWZR-30" edge="1">
          <mxGeometry relative="1" as="geometry" />
        </mxCell>
        <mxCell id="j1DzfyWoOEW-tvMOQWZR-39" value="" style="edgeStyle=orthogonalEdgeStyle;rounded=0;orthogonalLoop=1;jettySize=auto;html=1;fontSize=10;" parent="1" source="j1DzfyWoOEW-tvMOQWZR-10" target="j1DzfyWoOEW-tvMOQWZR-13" edge="1">
          <mxGeometry relative="1" as="geometry" />
        </mxCell>
        <mxCell id="j1DzfyWoOEW-tvMOQWZR-10" value="&lt;div style=&quot;font-size: 10px&quot;&gt;&lt;font style=&quot;font-size: 10px&quot;&gt;Data&lt;/font&gt;&lt;/div&gt;&lt;div style=&quot;font-size: 10px&quot;&gt;&lt;font style=&quot;font-size: 10px&quot;&gt; do Evento posterior a &lt;br&gt;&lt;/font&gt;&lt;/div&gt;&lt;div style=&quot;font-size: 10px&quot;&gt;&lt;font style=&quot;font-size: 10px&quot;&gt;data atual?&lt;br&gt;&lt;/font&gt;&lt;/div&gt;" style="rhombus;whiteSpace=wrap;html=1;fillColor=#d5e8d4;strokeColor=#82b366;" parent="1" vertex="1">
          <mxGeometry x="220" y="-582" width="120" height="60" as="geometry" />
        </mxCell>
        <mxCell id="j1DzfyWoOEW-tvMOQWZR-37" value="" style="edgeStyle=orthogonalEdgeStyle;rounded=0;orthogonalLoop=1;jettySize=auto;html=1;fontSize=10;" parent="1" source="j1DzfyWoOEW-tvMOQWZR-11" target="j1DzfyWoOEW-tvMOQWZR-12" edge="1">
          <mxGeometry relative="1" as="geometry" />
        </mxCell>
        <mxCell id="j1DzfyWoOEW-tvMOQWZR-11" value="&lt;div style=&quot;font-size: 10px&quot;&gt;&lt;font style=&quot;font-size: 10px&quot;&gt;Informe a data &lt;br&gt;&lt;/font&gt;&lt;/div&gt;&lt;div style=&quot;font-size: 10px&quot;&gt;&lt;font style=&quot;font-size: 10px&quot;&gt;do evento&lt;/font&gt;&lt;/div&gt;" style="shape=display;whiteSpace=wrap;html=1;" parent="1" vertex="1">
          <mxGeometry x="220" y="-820" width="120" height="60" as="geometry" />
        </mxCell>
        <mxCell id="j1DzfyWoOEW-tvMOQWZR-38" value="" style="edgeStyle=orthogonalEdgeStyle;rounded=0;orthogonalLoop=1;jettySize=auto;html=1;fontSize=10;" parent="1" source="j1DzfyWoOEW-tvMOQWZR-12" target="j1DzfyWoOEW-tvMOQWZR-10" edge="1">
          <mxGeometry relative="1" as="geometry" />
        </mxCell>
        <mxCell id="j1DzfyWoOEW-tvMOQWZR-12" value="&lt;font style=&quot;font-size: 10px&quot;&gt;Data do evento&lt;/font&gt;" style="shape=parallelogram;perimeter=parallelogramPerimeter;whiteSpace=wrap;html=1;fixedSize=1;" parent="1" vertex="1">
          <mxGeometry x="220" y="-700" width="120" height="60" as="geometry" />
        </mxCell>
        <mxCell id="j1DzfyWoOEW-tvMOQWZR-40" value="" style="edgeStyle=orthogonalEdgeStyle;rounded=0;orthogonalLoop=1;jettySize=auto;html=1;fontSize=10;" parent="1" source="j1DzfyWoOEW-tvMOQWZR-13" target="j1DzfyWoOEW-tvMOQWZR-14" edge="1">
          <mxGeometry relative="1" as="geometry" />
        </mxCell>
        <mxCell id="j1DzfyWoOEW-tvMOQWZR-13" value="&lt;div style=&quot;font-size: 10px&quot;&gt;&lt;font style=&quot;font-size: 10px&quot;&gt;Informar a idade &lt;br&gt;&lt;/font&gt;&lt;/div&gt;&lt;div style=&quot;font-size: 10px&quot;&gt;&lt;font style=&quot;font-size: 10px&quot;&gt;do participante&lt;/font&gt;&lt;/div&gt;" style="shape=display;whiteSpace=wrap;html=1;" parent="1" vertex="1">
          <mxGeometry x="220" y="-459" width="120" height="60" as="geometry" />
        </mxCell>
        <mxCell id="j1DzfyWoOEW-tvMOQWZR-41" value="" style="edgeStyle=orthogonalEdgeStyle;rounded=0;orthogonalLoop=1;jettySize=auto;html=1;fontSize=10;" parent="1" source="j1DzfyWoOEW-tvMOQWZR-14" target="j1DzfyWoOEW-tvMOQWZR-15" edge="1">
          <mxGeometry relative="1" as="geometry" />
        </mxCell>
        <mxCell id="j1DzfyWoOEW-tvMOQWZR-14" value="&lt;div style=&quot;font-size: 10px&quot;&gt;&lt;font style=&quot;font-size: 10px&quot;&gt;Idade do &lt;br&gt;&lt;/font&gt;&lt;/div&gt;&lt;div style=&quot;font-size: 10px&quot;&gt;&lt;font style=&quot;font-size: 10px&quot;&gt;participante&lt;/font&gt;&lt;/div&gt;" style="shape=parallelogram;perimeter=parallelogramPerimeter;whiteSpace=wrap;html=1;fixedSize=1;" parent="1" vertex="1">
          <mxGeometry x="220" y="-341" width="120" height="60" as="geometry" />
        </mxCell>
        <mxCell id="j1DzfyWoOEW-tvMOQWZR-42" value="" style="edgeStyle=orthogonalEdgeStyle;rounded=0;orthogonalLoop=1;jettySize=auto;html=1;fontSize=10;" parent="1" source="j1DzfyWoOEW-tvMOQWZR-15" target="j1DzfyWoOEW-tvMOQWZR-16" edge="1">
          <mxGeometry relative="1" as="geometry" />
        </mxCell>
        <mxCell id="j1DzfyWoOEW-tvMOQWZR-49" value="" style="edgeStyle=orthogonalEdgeStyle;rounded=0;orthogonalLoop=1;jettySize=auto;html=1;fontSize=10;" parent="1" source="j1DzfyWoOEW-tvMOQWZR-15" target="j1DzfyWoOEW-tvMOQWZR-47" edge="1">
          <mxGeometry relative="1" as="geometry" />
        </mxCell>
        <mxCell id="j1DzfyWoOEW-tvMOQWZR-15" value="&lt;div style=&quot;font-size: 10px&quot;&gt;&lt;font style=&quot;font-size: 10px&quot;&gt;Participante &lt;br&gt;&lt;/font&gt;&lt;/div&gt;&lt;div style=&quot;font-size: 10px&quot;&gt;&lt;font style=&quot;font-size: 10px&quot;&gt;é maior de 18 &lt;br&gt;&lt;/font&gt;&lt;/div&gt;&lt;div style=&quot;font-size: 10px&quot;&gt;&lt;font style=&quot;font-size: 10px&quot;&gt;anos?&lt;/font&gt;&lt;/div&gt;" style="rhombus;whiteSpace=wrap;html=1;fillColor=#d5e8d4;strokeColor=#82b366;" parent="1" vertex="1">
          <mxGeometry x="220" y="-221" width="120" height="60" as="geometry" />
        </mxCell>
        <mxCell id="j1DzfyWoOEW-tvMOQWZR-54" value="" style="edgeStyle=orthogonalEdgeStyle;rounded=0;orthogonalLoop=1;jettySize=auto;html=1;fontSize=10;" parent="1" source="j1DzfyWoOEW-tvMOQWZR-16" target="j1DzfyWoOEW-tvMOQWZR-53" edge="1">
          <mxGeometry relative="1" as="geometry" />
        </mxCell>
        <mxCell id="j1DzfyWoOEW-tvMOQWZR-16" value="&lt;font style=&quot;font-size: 10px&quot;&gt;Informar o limite máximo de 100 participantes&lt;/font&gt;" style="shape=display;whiteSpace=wrap;html=1;" parent="1" vertex="1">
          <mxGeometry x="220" y="-102" width="120" height="60" as="geometry" />
        </mxCell>
        <mxCell id="j1DzfyWoOEW-tvMOQWZR-63" value="" style="edgeStyle=orthogonalEdgeStyle;rounded=0;orthogonalLoop=1;jettySize=auto;html=1;fontSize=10;" parent="1" source="j1DzfyWoOEW-tvMOQWZR-18" target="j1DzfyWoOEW-tvMOQWZR-60" edge="1">
          <mxGeometry relative="1" as="geometry" />
        </mxCell>
        <mxCell id="j1DzfyWoOEW-tvMOQWZR-18" value="&lt;div style=&quot;font-size: 9px&quot; align=&quot;center&quot;&gt;&lt;font style=&quot;font-size: 9px&quot;&gt;Cadastro não &lt;br&gt;&lt;/font&gt;&lt;/div&gt;&lt;div style=&quot;font-size: 9px&quot; align=&quot;center&quot;&gt;&lt;font style=&quot;font-size: 9px&quot;&gt;permitido, limite de&lt;/font&gt;&lt;/div&gt;&lt;div style=&quot;font-size: 9px&quot; align=&quot;center&quot;&gt;&lt;font style=&quot;font-size: 9px&quot;&gt;participante atingido&lt;/font&gt;&lt;/div&gt;" style="shape=display;whiteSpace=wrap;html=1;align=center;" parent="1" vertex="1">
          <mxGeometry x="610" y="-341" width="120" height="60" as="geometry" />
        </mxCell>
        <mxCell id="j1DzfyWoOEW-tvMOQWZR-33" value="" style="edgeStyle=orthogonalEdgeStyle;rounded=0;orthogonalLoop=1;jettySize=auto;html=1;fontSize=10;" parent="1" source="j1DzfyWoOEW-tvMOQWZR-30" target="j1DzfyWoOEW-tvMOQWZR-32" edge="1">
          <mxGeometry relative="1" as="geometry" />
        </mxCell>
        <mxCell id="j1DzfyWoOEW-tvMOQWZR-30" value="&lt;div style=&quot;font-size: 10px&quot;&gt;&lt;b&gt;&lt;font style=&quot;font-size: 10px&quot;&gt;Data não permitida &lt;br&gt;&lt;/font&gt;&lt;/b&gt;&lt;/div&gt;&lt;div style=&quot;font-size: 10px&quot;&gt;&lt;b&gt;&lt;font style=&quot;font-size: 10px&quot;&gt;&quot;Evento não cadastrado&quot;&lt;br&gt;&lt;/font&gt;&lt;/b&gt;&lt;/div&gt;" style="shape=display;whiteSpace=wrap;html=1;" parent="1" vertex="1">
          <mxGeometry x="40" y="-582" width="120" height="60" as="geometry" />
        </mxCell>
        <mxCell id="j1DzfyWoOEW-tvMOQWZR-32" value="&lt;div style=&quot;font-size: 10px&quot;&gt;&lt;b&gt;&lt;font style=&quot;font-size: 10px&quot;&gt;Fim&lt;/font&gt;&lt;/b&gt;&lt;/div&gt;" style="ellipse;whiteSpace=wrap;html=1;fillColor=#f8cecc;strokeColor=#b85450;" parent="1" vertex="1">
          <mxGeometry x="40" y="-460" width="120" height="60" as="geometry" />
        </mxCell>
        <mxCell id="j1DzfyWoOEW-tvMOQWZR-43" value="&lt;font color=&quot;#FF0000&quot;&gt;Não&lt;/font&gt;" style="text;html=1;strokeColor=none;fillColor=none;align=center;verticalAlign=middle;whiteSpace=wrap;rounded=0;fontSize=10;" parent="1" vertex="1">
          <mxGeometry x="160" y="-580" width="60" height="30" as="geometry" />
        </mxCell>
        <mxCell id="j1DzfyWoOEW-tvMOQWZR-44" value="&lt;font color=&quot;#0000FF&quot;&gt;Sim&lt;/font&gt;" style="text;html=1;strokeColor=none;fillColor=none;align=center;verticalAlign=middle;whiteSpace=wrap;rounded=0;fontSize=10;" parent="1" vertex="1">
          <mxGeometry x="270" y="-510" width="60" height="30" as="geometry" />
        </mxCell>
        <mxCell id="j1DzfyWoOEW-tvMOQWZR-46" value="" style="edgeStyle=orthogonalEdgeStyle;rounded=0;orthogonalLoop=1;jettySize=auto;html=1;fontSize=10;" parent="1" source="j1DzfyWoOEW-tvMOQWZR-47" target="j1DzfyWoOEW-tvMOQWZR-48" edge="1">
          <mxGeometry relative="1" as="geometry" />
        </mxCell>
        <mxCell id="j1DzfyWoOEW-tvMOQWZR-47" value="&lt;div&gt;&lt;b&gt;Idade não&lt;/b&gt;&lt;/div&gt;&lt;div&gt;&lt;b&gt;permitida&lt;br&gt;&lt;/b&gt;&lt;/div&gt;" style="shape=display;whiteSpace=wrap;html=1;" parent="1" vertex="1">
          <mxGeometry x="40" y="-221" width="120" height="60" as="geometry" />
        </mxCell>
        <mxCell id="j1DzfyWoOEW-tvMOQWZR-48" value="&lt;div style=&quot;font-size: 10px&quot;&gt;&lt;b&gt;&lt;font style=&quot;font-size: 10px&quot;&gt;Fim&lt;/font&gt;&lt;/b&gt;&lt;/div&gt;" style="ellipse;whiteSpace=wrap;html=1;fillColor=#f8cecc;strokeColor=#b85450;" parent="1" vertex="1">
          <mxGeometry x="40" y="-102" width="120" height="60" as="geometry" />
        </mxCell>
        <mxCell id="j1DzfyWoOEW-tvMOQWZR-51" value="&lt;font color=&quot;#FF0000&quot;&gt;Não&lt;/font&gt;" style="text;html=1;strokeColor=none;fillColor=none;align=center;verticalAlign=middle;whiteSpace=wrap;rounded=0;fontSize=10;" parent="1" vertex="1">
          <mxGeometry x="160" y="-221" width="60" height="30" as="geometry" />
        </mxCell>
        <mxCell id="j1DzfyWoOEW-tvMOQWZR-52" value="&lt;font color=&quot;#0000FF&quot;&gt;Sim&lt;/font&gt;" style="text;html=1;strokeColor=none;fillColor=none;align=center;verticalAlign=middle;whiteSpace=wrap;rounded=0;fontSize=10;" parent="1" vertex="1">
          <mxGeometry x="270" y="-150" width="60" height="30" as="geometry" />
        </mxCell>
        <mxCell id="j1DzfyWoOEW-tvMOQWZR-56" value="" style="edgeStyle=orthogonalEdgeStyle;rounded=0;orthogonalLoop=1;jettySize=auto;html=1;fontSize=10;" parent="1" source="j1DzfyWoOEW-tvMOQWZR-53" target="j1DzfyWoOEW-tvMOQWZR-55" edge="1">
          <mxGeometry relative="1" as="geometry" />
        </mxCell>
        <mxCell id="j1DzfyWoOEW-tvMOQWZR-53" value="&lt;div&gt;&lt;font style=&quot;font-size: 10px&quot;&gt;Cadastro do &lt;br&gt;&lt;/font&gt;&lt;/div&gt;&lt;div&gt;&lt;font style=&quot;font-size: 10px&quot;&gt;Participante&lt;/font&gt;&lt;/div&gt;" style="shape=parallelogram;perimeter=parallelogramPerimeter;whiteSpace=wrap;html=1;fixedSize=1;" parent="1" vertex="1">
          <mxGeometry x="410" y="-102" width="120" height="60" as="geometry" />
        </mxCell>
        <mxCell id="j1DzfyWoOEW-tvMOQWZR-58" value="" style="edgeStyle=orthogonalEdgeStyle;rounded=0;orthogonalLoop=1;jettySize=auto;html=1;fontSize=10;" parent="1" source="j1DzfyWoOEW-tvMOQWZR-55" target="j1DzfyWoOEW-tvMOQWZR-57" edge="1">
          <mxGeometry relative="1" as="geometry" />
        </mxCell>
        <mxCell id="j1DzfyWoOEW-tvMOQWZR-55" value="Contagem do número de participante, até atingir 100 pessoas" style="rounded=0;whiteSpace=wrap;html=1;fontSize=10;" parent="1" vertex="1">
          <mxGeometry x="410" y="-221" width="120" height="60" as="geometry" />
        </mxCell>
        <mxCell id="j1DzfyWoOEW-tvMOQWZR-61" value="" style="edgeStyle=orthogonalEdgeStyle;rounded=0;orthogonalLoop=1;jettySize=auto;html=1;fontSize=10;" parent="1" source="j1DzfyWoOEW-tvMOQWZR-57" target="j1DzfyWoOEW-tvMOQWZR-59" edge="1">
          <mxGeometry relative="1" as="geometry" />
        </mxCell>
        <mxCell id="j1DzfyWoOEW-tvMOQWZR-62" value="" style="edgeStyle=orthogonalEdgeStyle;rounded=0;orthogonalLoop=1;jettySize=auto;html=1;fontSize=10;" parent="1" source="j1DzfyWoOEW-tvMOQWZR-57" target="j1DzfyWoOEW-tvMOQWZR-18" edge="1">
          <mxGeometry relative="1" as="geometry" />
        </mxCell>
        <mxCell id="j1DzfyWoOEW-tvMOQWZR-57" value="&lt;div style=&quot;font-size: 9px&quot;&gt;&lt;font style=&quot;font-size: 9px&quot;&gt;&lt;b&gt;&lt;font style=&quot;font-size: 9px&quot;&gt;Limite máximo de &lt;br&gt;&lt;/font&gt;&lt;/b&gt;&lt;/font&gt;&lt;/div&gt;&lt;div style=&quot;font-size: 9px&quot;&gt;&lt;font style=&quot;font-size: 9px&quot;&gt;&lt;b&gt;&lt;font style=&quot;font-size: 9px&quot;&gt;cadastro atingido&lt;/font&gt;&lt;/b&gt;&lt;/font&gt;&lt;/div&gt;&lt;div style=&quot;font-size: 9px&quot;&gt;&lt;font style=&quot;font-size: 9px&quot;&gt;&lt;b&gt;&lt;font style=&quot;font-size: 9px&quot;&gt;100 pessoas&lt;br&gt;&lt;/font&gt;&lt;/b&gt;&lt;/font&gt;&lt;/div&gt;" style="rhombus;whiteSpace=wrap;html=1;fillColor=#d5e8d4;strokeColor=#82b366;" parent="1" vertex="1">
          <mxGeometry x="410" y="-341" width="120" height="60" as="geometry" />
        </mxCell>
        <mxCell id="j1DzfyWoOEW-tvMOQWZR-64" value="" style="edgeStyle=orthogonalEdgeStyle;rounded=0;orthogonalLoop=1;jettySize=auto;html=1;fontSize=10;" parent="1" source="j1DzfyWoOEW-tvMOQWZR-59" target="j1DzfyWoOEW-tvMOQWZR-60" edge="1">
          <mxGeometry relative="1" as="geometry" />
        </mxCell>
        <mxCell id="j1DzfyWoOEW-tvMOQWZR-59" value="&lt;font style=&quot;font-size: 10px&quot;&gt;Informar o limite máximo de 100 participantes&lt;/font&gt;" style="shape=display;whiteSpace=wrap;html=1;" parent="1" vertex="1">
          <mxGeometry x="410" y="-460" width="120" height="60" as="geometry" />
        </mxCell>
        <mxCell id="j1DzfyWoOEW-tvMOQWZR-60" value="Fim do cadastro" style="ellipse;whiteSpace=wrap;html=1;fillColor=#fff2cc;strokeColor=#d6b656;" parent="1" vertex="1">
          <mxGeometry x="610" y="-460" width="120" height="60" as="geometry" />
        </mxCell>
        <mxCell id="j1DzfyWoOEW-tvMOQWZR-65" value="&lt;font color=&quot;#FF0000&quot;&gt;Não&lt;/font&gt;" style="text;html=1;strokeColor=none;fillColor=none;align=center;verticalAlign=middle;whiteSpace=wrap;rounded=0;fontSize=10;" parent="1" vertex="1">
          <mxGeometry x="425" y="-380" width="60" height="30" as="geometry" />
        </mxCell>
        <mxCell id="j1DzfyWoOEW-tvMOQWZR-66" value="&lt;font color=&quot;#0000FF&quot;&gt;Sim&lt;/font&gt;" style="text;html=1;strokeColor=none;fillColor=none;align=center;verticalAlign=middle;whiteSpace=wrap;rounded=0;fontSize=10;" parent="1" vertex="1">
          <mxGeometry x="530" y="-341" width="60" height="30" as="geometry" />
        </mxCell>
        <mxCell id="j1DzfyWoOEW-tvMOQWZR-67" value="&lt;div&gt;&lt;font style=&quot;font-size: 16px&quot;&gt;Aluno: Josué Figueiró Barbosa &lt;br&gt;&lt;/font&gt;&lt;/div&gt;&lt;div align=&quot;left&quot;&gt;&lt;font style=&quot;font-size: 16px&quot;&gt;Curso: Fullstack&lt;br&gt;&lt;/font&gt;&lt;/div&gt;" style="text;html=1;strokeColor=none;fillColor=none;align=center;verticalAlign=middle;whiteSpace=wrap;rounded=0;fontSize=9;fontColor=#0000FF;" parent="1" vertex="1">
          <mxGeometry x="405" y="-1150" width="395" height="110" as="geometry" />
        </mxCell>
      </root>
    </mxGraphModel>
  </diagram>
</mxfile>
